<mxfile host="app.diagrams.net" agent="Mozilla/5.0 (Windows NT 10.0; Win64; x64) AppleWebKit/537.36 (KHTML, like Gecko) Chrome/127.0.0.0 Safari/537.36" version="24.7.6">
  <diagram name="Сторінка-1" id="eU4wThECjQbczJmaSyJu">
    <mxGraphModel dx="880" dy="468" grid="1" gridSize="10" guides="1" tooltips="1" connect="1" arrows="1" fold="1" page="1" pageScale="1" pageWidth="827" pageHeight="1169" math="0" shadow="0">
      <root>
        <mxCell id="0" />
        <mxCell id="1" parent="0" />
        <mxCell id="C0064y3KRB5JzDWib-eo-9" style="edgeStyle=orthogonalEdgeStyle;rounded=0;orthogonalLoop=1;jettySize=auto;html=1;exitX=0.5;exitY=1;exitDx=0;exitDy=0;entryX=0.5;entryY=0;entryDx=0;entryDy=0;dashed=1;" edge="1" parent="1" source="C0064y3KRB5JzDWib-eo-1" target="C0064y3KRB5JzDWib-eo-7">
          <mxGeometry relative="1" as="geometry" />
        </mxCell>
        <mxCell id="C0064y3KRB5JzDWib-eo-1" value="«interface»&lt;br&gt;&lt;b&gt;CarBuilder&lt;/b&gt;&lt;div&gt;&lt;div style=&quot;text-align: justify;&quot;&gt;+ setEngine(String): CarBuilder&lt;/div&gt;&lt;div style=&quot;text-align: justify;&quot;&gt;+ setTransmission(String): CarBuilder&lt;/div&gt;&lt;div style=&quot;text-align: justify;&quot;&gt;+ setWheels (int): CarBuilder&lt;/div&gt;&lt;div style=&quot;text-align: justify;&quot;&gt;+ build(): Car&lt;/div&gt;&lt;/div&gt;" style="html=1;whiteSpace=wrap;" vertex="1" parent="1">
          <mxGeometry x="320" y="30" width="240" height="120" as="geometry" />
        </mxCell>
        <mxCell id="C0064y3KRB5JzDWib-eo-10" style="edgeStyle=orthogonalEdgeStyle;rounded=0;orthogonalLoop=1;jettySize=auto;html=1;exitX=0.5;exitY=1;exitDx=0;exitDy=0;entryX=0.5;entryY=0;entryDx=0;entryDy=0;dashed=1;" edge="1" parent="1" source="C0064y3KRB5JzDWib-eo-7" target="C0064y3KRB5JzDWib-eo-8">
          <mxGeometry relative="1" as="geometry" />
        </mxCell>
        <mxCell id="C0064y3KRB5JzDWib-eo-7" value="&lt;p style=&quot;margin:0px;margin-top:4px;text-align:center;&quot;&gt;&lt;b&gt;ConcreteCarBuilder&lt;/b&gt;&lt;/p&gt;&lt;hr size=&quot;1&quot; style=&quot;border-style:solid;&quot;&gt;&lt;p style=&quot;margin:0px;margin-left:4px;&quot;&gt;&amp;nbsp;- engine: String&lt;/p&gt;&lt;p style=&quot;margin:0px;margin-left:4px;&quot;&gt;- transmission: String&lt;/p&gt;&lt;p style=&quot;margin:0px;margin-left:4px;&quot;&gt;- wheels: int&lt;/p&gt;&lt;hr size=&quot;1&quot; style=&quot;border-style:solid;&quot;&gt;&lt;p style=&quot;margin:0px;margin-left:4px;&quot;&gt;+ setEngine (String): CarBuilder&lt;/p&gt;&lt;p style=&quot;margin:0px;margin-left:4px;&quot;&gt;+ setTransmission (String): CarBuilder&lt;/p&gt;&lt;p style=&quot;margin:0px;margin-left:4px;&quot;&gt;+ setWheels (int): CarBuilder&lt;/p&gt;&lt;p style=&quot;margin:0px;margin-left:4px;&quot;&gt;+ build(): Car&lt;/p&gt;&lt;p style=&quot;margin:0px;margin-left:4px;&quot;&gt;&lt;br&gt;&lt;/p&gt;&lt;p style=&quot;margin:0px;margin-left:4px;&quot;&gt;&lt;br&gt;&lt;/p&gt;" style="verticalAlign=top;align=left;overflow=fill;html=1;whiteSpace=wrap;" vertex="1" parent="1">
          <mxGeometry x="320" y="180" width="240" height="150" as="geometry" />
        </mxCell>
        <mxCell id="C0064y3KRB5JzDWib-eo-8" value="&lt;b&gt;Car&lt;/b&gt;&lt;div&gt;- engine: String&lt;/div&gt;&lt;div&gt;- transmission: String&lt;/div&gt;&lt;div&gt;- wheels: int&lt;/div&gt;&lt;div&gt;+ toString(): String&lt;/div&gt;" style="html=1;whiteSpace=wrap;" vertex="1" parent="1">
          <mxGeometry x="360" y="370" width="160" height="80" as="geometry" />
        </mxCell>
      </root>
    </mxGraphModel>
  </diagram>
</mxfile>
